<svg width="189" height="32" viewBox="0 0 189 32" fill="none" xmlns="http://www.w3.org/2000/svg">
<path d="M13.8103 0.0220132C14.0379 0.131258 14.0379 0.131259 14.2593 0.284586C14.32 0.325657 14.32 0.325657 14.382 0.367558C14.4683 0.426095 14.5542 0.485191 14.6398 0.544797C14.8651 0.701555 15.0934 0.853854 15.3214 1.00666C15.3667 1.03714 15.4119 1.06761 15.4586 1.099C16.3662 1.70764 17.3314 2.22703 18.3163 2.69904C18.4506 2.76407 18.5837 2.83123 18.7168 2.89878C19.9297 3.50403 21.2332 3.92238 22.529 4.31108C22.4151 4.55323 22.2882 4.7053 22.094 4.89115C21.896 5.0811 21.7092 5.27567 21.5295 5.48277C21.2286 5.82909 20.9205 6.16715 20.6042 6.49955C20.548 6.56191 20.4918 6.62427 20.4339 6.68852C20.0262 7.11209 20.0262 7.11209 19.7714 7.14174C19.5994 7.10803 19.4552 7.05317 19.2946 6.98295C19.2058 6.9501 19.2058 6.9501 19.1152 6.91659C18.9149 6.84106 18.7182 6.75921 18.5212 6.67533C18.4481 6.6444 18.375 6.61347 18.2997 6.58161C16.9949 6.02315 15.743 5.39924 14.5241 4.6717C14.4623 4.63482 14.4005 4.59795 14.3368 4.55995C14.2231 4.4896 14.1111 4.41635 14.0015 4.33988C13.953 4.30636 13.9045 4.27283 13.8545 4.23829C13.8133 4.20819 13.7721 4.1781 13.7297 4.14709C13.5933 4.0835 13.5933 4.0835 13.4267 4.15062C13.2601 4.23455 13.1007 4.32213 12.9418 4.41984C12.883 4.45556 12.8241 4.49127 12.7635 4.52807C12.7 4.56668 12.6365 4.60529 12.571 4.64506C10.0112 6.17261 6.47905 8.10795 3.40403 8.10795C3.40996 9.23879 3.41666 10.3696 3.42424 11.5004C3.42775 12.0257 3.43101 12.5509 3.43369 13.0761C3.43603 13.5346 3.43884 13.9931 3.44219 14.4516C3.44395 14.6937 3.44548 14.9358 3.44645 15.1779C3.45947 18.118 3.89753 20.567 5.93528 22.8033C6.00227 22.8786 6.06919 22.9541 6.13605 23.0296C6.49165 23.4281 6.85646 23.8016 7.27121 24.1392C7.34363 24.2001 7.41605 24.261 7.48847 24.3219C8.94856 25.534 10.5891 26.4857 12.2898 27.3164C12.3704 27.3562 12.4511 27.396 12.5342 27.4369C13.1477 27.7599 13.1477 27.7599 13.8148 27.7528C13.9848 27.6867 14.1472 27.6114 14.3113 27.5318C14.4027 27.4889 14.4027 27.4889 14.4959 27.4451C14.6902 27.3528 14.8832 27.2582 15.0759 27.1626C15.1383 27.1317 15.2006 27.1008 15.2649 27.0689C17.4515 25.9732 19.7971 24.5404 21.3337 22.5923C21.3644 22.5536 21.3951 22.5148 21.4268 22.4748C22.869 20.6409 23.6177 18.6832 23.5755 16.3384C23.5475 14.267 23.5475 14.267 24.0583 13.711C24.1817 13.5882 24.3078 13.472 24.4396 13.3582C24.6652 13.1519 24.8458 12.9095 25.0339 12.6695C25.1099 12.5758 25.1859 12.4822 25.2621 12.3888C25.4715 12.13 25.6772 11.8684 25.8821 11.606C26.1343 11.2832 26.3899 10.9636 26.6511 10.648C26.7373 10.5438 26.7373 10.5438 26.8252 10.4376C26.8693 10.3881 26.9133 10.3386 26.9587 10.2876C26.9819 10.2876 27.0051 10.2876 27.029 10.2876C27.0356 11.2969 27.0406 12.3061 27.0436 13.3153C27.045 13.7841 27.047 14.2529 27.0502 14.7217C27.0533 15.1753 27.055 15.6289 27.0557 16.0825C27.0562 16.2543 27.0572 16.4262 27.0588 16.598C27.0703 17.9431 26.9777 19.263 26.5193 20.5401C26.4983 20.6002 26.4774 20.6603 26.4559 20.7222C25.958 22.1161 25.2181 23.3452 24.2868 24.4908C24.2578 24.527 24.2288 24.5633 24.1988 24.6007C23.4367 25.5497 22.5771 26.4168 21.615 27.1626C21.5617 27.2066 21.5084 27.2506 21.4535 27.2959C20.5156 28.0685 19.4984 28.7295 18.4509 29.3423C18.402 29.3711 18.353 29.3999 18.3026 29.4295C17.0865 30.1393 15.8082 30.7559 14.509 31.2979C14.4552 31.3212 14.4014 31.3445 14.3459 31.3685C13.7252 31.6179 13.2159 31.5728 12.6051 31.315C12.5034 31.2695 12.5034 31.2695 12.3996 31.2232C12.2905 31.1759 12.2905 31.1759 12.1792 31.1277C11.9486 31.0267 11.7191 30.9233 11.49 30.8189C11.4163 30.7854 11.3426 30.752 11.2667 30.7175C8.95141 29.6568 6.80385 28.3431 4.88059 26.6705C4.82059 26.6184 4.76058 26.5664 4.69876 26.5128C3.91435 25.8198 3.20123 25.0916 2.5747 24.2525C2.49801 24.15 2.41991 24.0485 2.34165 23.9472C0.784345 21.8885 -0.00817884 19.4746 0.00173209 16.9061C0.00144534 16.7789 0.00106925 16.6517 0.000612001 16.5245C-0.000338363 16.1835 1.87463e-05 15.8425 0.000692467 15.5014C0.00123124 15.1431 0.000729537 14.7848 0.00039957 14.4264C1.76622e-05 13.8261 0.00051718 13.2258 0.0015261 12.6254C0.00267887 11.9315 0.00229809 11.2376 0.00114093 10.5436C0.000184548 9.94609 4.7607e-05 9.34857 0.000600199 8.75105C0.000928857 8.39486 0.000973418 8.03867 0.000276188 7.68248C-0.00033209 7.34854 8.73415e-05 7.01462 0.0013083 6.68068C0.00158756 6.55812 0.0015068 6.43555 0.00104223 6.31299C0.000467281 6.14594 0.0011872 5.97896 0.00224064 5.81191C0.0017701 5.76326 0.00129958 5.7146 0.000814776 5.66447C0.00339605 5.45403 0.0196698 5.31223 0.122985 5.12694C0.33409 4.92348 0.575988 4.92708 0.855747 4.90324C3.72503 4.64342 6.46963 3.91572 9.02576 2.55862C9.18922 2.47266 9.3539 2.38935 9.51874 2.30607C10.4964 1.80852 11.429 1.2555 12.3271 0.624888C12.3835 0.585772 12.4399 0.546657 12.498 0.506356C12.605 0.431805 12.7112 0.356121 12.8163 0.27911C12.8889 0.228526 12.8889 0.228526 12.963 0.17692C13.0045 0.146942 13.0461 0.116964 13.0889 0.0860772C13.3293 -0.010886 13.5575 -0.0159882 13.8103 0.0220132Z" fill="url(#paint0_linear_48_7038)"/>
<path d="M28.3875 1.12128C28.4525 1.11928 28.5175 1.11729 28.5845 1.11523C29.0623 1.19153 29.4134 1.60103 29.7542 1.92108C29.8014 1.96441 29.8487 2.00773 29.8973 2.05237C29.9425 2.09461 29.9878 2.13684 30.0344 2.18036C30.0751 2.21834 30.1159 2.25631 30.1579 2.29544C30.4194 2.58585 30.4524 2.87779 30.4439 3.25784C30.3682 3.66275 30.1047 3.93603 29.8421 4.24139C29.7812 4.31375 29.7205 4.38617 29.6597 4.45865C29.5634 4.57318 29.4667 4.6874 29.3693 4.80103C29.1358 5.07342 28.9111 5.35137 28.6907 5.63446C28.4133 5.99065 28.1321 6.34344 27.847 6.69354C27.7898 6.76379 27.7898 6.76379 27.7314 6.83545C27.5757 7.0265 27.4199 7.21742 27.264 7.40834C26.8669 7.89503 26.4711 8.38229 26.0848 8.87762C25.7555 9.29987 25.4159 9.71301 25.0743 10.1254C24.8192 10.4341 24.5686 10.7457 24.3226 11.0617C23.9949 11.4827 23.6568 11.8943 23.3165 12.3051C23.0614 12.6138 22.8107 12.9254 22.5648 13.2414C22.2371 13.6624 21.899 14.074 21.5587 14.4848C21.3036 14.7935 21.0529 15.105 20.807 15.4211C20.4793 15.8421 20.1411 16.2536 19.8009 16.6645C19.5458 16.9732 19.2951 17.2847 19.0491 17.6008C18.7215 18.0217 18.3833 18.4333 18.0431 18.8441C17.788 19.1529 17.5373 19.4644 17.2913 19.7805C16.9639 20.2012 16.6259 20.6127 16.2857 21.0232C16.0257 21.3378 15.7709 21.6556 15.5203 21.9777C15.2636 22.3063 15.0042 22.6323 14.7381 22.9533C14.7077 22.9908 14.6774 23.0282 14.6461 23.0668C14.3913 23.3708 14.1401 23.6142 13.7406 23.685C13.004 23.6773 13.004 23.6773 12.6859 23.3664C11.7914 22.2926 11.0969 21.014 10.3497 19.8364C10.1829 19.5736 10.0157 19.3112 9.84846 19.0487C9.3973 18.3404 8.94801 17.6309 8.50001 16.9206C8.3251 16.6434 8.15001 16.3662 7.97493 16.0891C7.76555 15.7576 7.55621 15.4261 7.34706 15.0945C7.31293 15.0404 7.27879 14.9864 7.24362 14.9306C7.17468 14.8213 7.10586 14.712 7.03715 14.6025C6.84217 14.2926 6.64402 13.9851 6.44234 13.6795C6.39755 13.6109 6.35277 13.5424 6.30662 13.4718C6.21999 13.3393 6.13262 13.2074 6.04439 13.076C5.74579 12.6171 5.5576 12.21 5.60628 11.655C5.78245 11.2961 6.04641 11.0946 6.35774 10.8508C6.41158 10.8085 6.41158 10.8085 6.46651 10.7653C7.26826 10.1389 7.26826 10.1389 7.75521 10.1301C7.81448 10.1283 7.87376 10.1264 7.93483 10.1246C8.57038 10.2057 9.05863 10.9357 9.45122 11.3929C9.63211 11.5996 9.81849 11.8008 10.0052 12.0021C10.4465 12.4785 10.884 12.9581 11.3104 13.4479C11.508 13.6749 11.7096 13.8979 11.9124 14.1203C12.1547 14.386 12.394 14.6537 12.6296 14.9253C12.8368 15.1614 13.0492 15.3929 13.261 15.6249C13.389 15.7726 13.389 15.7726 13.4593 15.9133C13.721 15.8064 13.8597 15.655 14.0438 15.4431C14.5225 14.9032 15.0389 14.4002 15.552 13.8935C15.9741 13.4762 15.9741 13.4762 16.3718 13.0359C16.7593 12.5826 17.196 12.1728 17.6201 11.7539C18.1376 11.2474 18.1376 11.2474 18.6251 10.7123C19.0232 10.2452 19.4741 9.82446 19.9103 9.39336C20.307 9.00095 20.6994 8.61145 21.0613 8.18631C21.418 7.78747 21.8098 7.41892 22.1904 7.04301C22.709 6.53527 22.709 6.53527 23.1976 5.99921C23.5827 5.54732 24.0183 5.13965 24.4404 4.7227C24.8261 4.34127 25.2073 3.96099 25.5594 3.54785C25.8836 3.18513 26.2362 2.84809 26.5814 2.50555C26.6609 2.42642 26.7403 2.34728 26.8198 2.26811C26.9658 2.1227 27.1118 1.97738 27.258 1.83218C27.386 1.70497 27.513 1.57689 27.6392 1.4479C27.8913 1.20234 28.0408 1.12607 28.3875 1.12128Z" fill="url(#paint1_linear_48_7038)"/>
<path d="M47.526 6.79156V26.5403H43.7531V6.79156H47.526ZM37.4453 8.47168V4.99354H53.8338V8.47168H37.4453Z" fill="url(#paint2_linear_48_7038)"/>
<path d="M63.1268 11.9793H66.7228V26.5403H63.3921L63.1268 24.5949C62.6945 25.2827 62.046 25.8427 61.1814 26.2751C60.3168 26.7074 59.3932 26.9235 58.4107 26.9235C56.7404 26.9235 55.4336 26.393 54.4904 25.3318C53.5472 24.2707 53.0755 22.8559 53.0755 21.0873V11.9793H56.6716V19.8199C56.6716 21.1954 56.9369 22.1877 57.4674 22.7969C57.998 23.4061 58.7644 23.7107 59.7665 23.7107C60.9063 23.7107 61.7512 23.3766 62.3015 22.7085C62.8517 22.0207 63.1268 20.9891 63.1268 19.6135V11.9793Z" fill="url(#paint3_linear_48_7038)"/>
<path d="M78.3955 11.9203V15.2511H77.0691C75.7525 15.2511 74.7208 15.6048 73.9741 16.3122C73.2274 17 72.854 18.0513 72.854 19.4661V26.5403H69.258V12.0088H72.6477L72.9424 15.0153H72.5887C72.7852 14.0524 73.247 13.2664 73.9741 12.6572C74.7012 12.0481 75.6444 11.7435 76.8038 11.7435C77.0592 11.7435 77.3147 11.7533 77.5701 11.773C77.8256 11.7926 78.1007 11.8417 78.3955 11.9203Z" fill="url(#paint4_linear_48_7038)"/>
<path d="M83.2465 26.5403H79.6505V11.9793H82.9813L83.276 13.8657C83.728 13.1387 84.3666 12.5688 85.1919 12.1562C86.0369 11.7435 86.9507 11.5372 87.9332 11.5372C89.7607 11.5372 91.1362 12.0775 92.0598 13.1583C93.003 14.2391 93.4746 15.7129 93.4746 17.5797V26.5403H89.8786V18.4345C89.8786 17.2162 89.6035 16.3122 89.0533 15.7227C88.503 15.1136 87.7563 14.809 86.8131 14.809C85.693 14.809 84.8186 15.1627 84.1898 15.8701C83.5609 16.5775 83.2465 17.5207 83.2465 18.6998V26.5403Z" fill="url(#paint5_linear_48_7038)"/>
<path d="M94.536 22.119H97.9552C97.9748 22.7478 98.2106 23.2489 98.6626 23.6222C99.1146 23.9956 99.7434 24.1823 100.549 24.1823C101.414 24.1823 102.062 24.0251 102.494 23.7107C102.946 23.3963 103.172 22.9738 103.172 22.4432C103.172 22.0895 103.054 21.7751 102.819 21.5C102.583 21.2249 102.141 21.0185 101.492 20.881L98.8689 20.262C97.5523 19.9672 96.5698 19.4956 95.9214 18.8472C95.2925 18.179 94.9781 17.2653 94.9781 16.1059C94.9781 15.1627 95.2238 14.3472 95.715 13.6594C96.2259 12.9716 96.9137 12.4509 97.7783 12.0972C98.643 11.7238 99.6353 11.5372 100.755 11.5372C101.836 11.5372 102.789 11.7337 103.615 12.1267C104.44 12.5197 105.078 13.0699 105.53 13.7773C106.002 14.4847 106.248 15.3101 106.267 16.2533H102.848C102.848 15.6245 102.652 15.1332 102.259 14.7795C101.866 14.4061 101.315 14.2195 100.608 14.2195C99.9006 14.2195 99.3504 14.3767 98.9574 14.6911C98.5643 15.0055 98.3678 15.428 98.3678 15.9585C98.3678 16.7642 98.9967 17.3144 100.254 17.6092L102.878 18.2282C104.096 18.5033 105.01 18.9454 105.619 19.5546C106.248 20.1637 106.562 21.0284 106.562 22.1484C106.562 23.131 106.307 23.9858 105.796 24.7128C105.285 25.4203 104.568 25.9705 103.644 26.3635C102.72 26.7368 101.659 26.9235 100.461 26.9235C98.6528 26.9235 97.2085 26.4814 96.1277 25.5971C95.0666 24.7128 94.536 23.5535 94.536 22.119Z" fill="url(#paint6_linear_48_7038)"/>
<path d="M106.677 11.9793H115.873V14.9858H106.677V11.9793ZM113.073 26.5403H109.477V7.44003H113.073V26.5403Z" fill="url(#paint7_linear_48_7038)"/>
<path d="M116.959 26.5403V11.9793H120.555V26.5403H116.959ZM118.728 9.06119C118.119 9.06119 117.598 8.85486 117.166 8.4422C116.753 8.00989 116.547 7.48915 116.547 6.87999C116.547 6.27082 116.753 5.75991 117.166 5.34725C117.598 4.93459 118.119 4.72825 118.728 4.72825C119.337 4.72825 119.848 4.93459 120.261 5.34725C120.693 5.75991 120.909 6.27082 120.909 6.87999C120.909 7.48915 120.693 8.00989 120.261 8.4422C119.848 8.85486 119.337 9.06119 118.728 9.06119Z" fill="url(#paint8_linear_48_7038)"/>
<path d="M126.717 26.5403H123.151V4.61035H126.717V26.5403Z" fill="url(#paint9_linear_48_7038)"/>
<path d="M135.824 26.9235C134.39 26.9235 133.113 26.5993 131.993 25.9508C130.892 25.2827 130.028 24.3788 129.399 23.239C128.77 22.0797 128.455 20.7533 128.455 19.2598C128.455 17.7467 128.76 16.4105 129.369 15.2511C129.978 14.0917 130.833 13.1878 131.934 12.5393C133.034 11.8712 134.292 11.5372 135.707 11.5372C137.18 11.5372 138.448 11.8516 139.509 12.4804C140.57 13.0896 141.386 13.9443 141.955 15.0448C142.545 16.1452 142.84 17.4618 142.84 18.9945V20.0851L130.342 20.1146L130.401 17.8155H139.273C139.273 16.8133 138.949 16.0077 138.3 15.3985C137.672 14.7893 136.817 14.4847 135.736 14.4847C134.891 14.4847 134.174 14.6616 133.584 15.0153C133.014 15.369 132.582 15.8996 132.287 16.607C131.993 17.3144 131.845 18.179 131.845 19.2009C131.845 20.7729 132.179 21.9618 132.847 22.7674C133.535 23.5731 134.547 23.9759 135.883 23.9759C136.866 23.9759 137.672 23.7893 138.3 23.4159C138.949 23.0425 139.371 22.512 139.568 21.8242H142.899C142.584 23.4159 141.798 24.6637 140.541 25.5676C139.303 26.4716 137.731 26.9235 135.824 26.9235Z" fill="url(#paint10_linear_48_7038)"/>
<path d="M147.535 26.5403L141.109 4.99354H145.029L148.448 16.3712C148.625 16.9607 148.792 17.5895 148.949 18.2576C149.107 18.9061 149.264 19.702 149.421 20.6452C149.598 19.6823 149.765 18.8865 149.922 18.2576C150.099 17.6092 150.276 16.9804 150.453 16.3712L153.872 4.99354H158.028L161.359 16.3712C161.536 16.9804 161.703 17.619 161.86 18.2871C162.037 18.9552 162.214 19.7413 162.39 20.6452C162.587 19.643 162.764 18.8275 162.921 18.1987C163.098 17.5502 163.265 16.9607 163.422 16.4301L166.9 4.99354H170.732L164.188 26.5403H160.533L155.935 10.8592L151.219 26.5403H147.535Z" fill="url(#paint11_linear_48_7038)"/>
<path d="M176.16 4.99354V26.5403H172.387V4.99354H176.16ZM180.906 19.1124H175.246V15.7522H180.11C181.407 15.7522 182.389 15.428 183.058 14.7795C183.745 14.1114 184.089 13.1878 184.089 12.0088C184.089 10.8297 183.745 9.92582 183.058 9.297C182.389 8.66818 181.427 8.35378 180.169 8.35378H174.893V4.99354H180.906C182.36 4.99354 183.618 5.28829 184.679 5.87781C185.74 6.46733 186.565 7.29265 187.155 8.35378C187.744 9.39525 188.039 10.6234 188.039 12.0382C188.039 13.4138 187.744 14.6419 187.155 15.7227C186.565 16.7838 185.74 17.619 184.679 18.2282C183.618 18.8177 182.36 19.1124 180.906 19.1124Z" fill="url(#paint12_linear_48_7038)"/>
<defs>
<linearGradient id="paint0_linear_48_7038" x1="2.68195" y1="1.4255e-06" x2="32.3228" y2="21.5598" gradientUnits="userSpaceOnUse">
<stop stop-color="#4D35FA"/>
<stop offset="1" stop-color="#AF35FA"/>
</linearGradient>
<linearGradient id="paint1_linear_48_7038" x1="8.06122" y1="1.11524" x2="30.3068" y2="21.8734" gradientUnits="userSpaceOnUse">
<stop stop-color="#4D35FA"/>
<stop offset="1" stop-color="#AF35FA"/>
</linearGradient>
<linearGradient id="paint2_linear_48_7038" x1="52.371" y1="4.61035" x2="59.8496" y2="47.3939" gradientUnits="userSpaceOnUse">
<stop stop-color="#4D35FA"/>
<stop offset="1" stop-color="#AF35FA"/>
</linearGradient>
<linearGradient id="paint3_linear_48_7038" x1="52.371" y1="4.61035" x2="59.8496" y2="47.3939" gradientUnits="userSpaceOnUse">
<stop stop-color="#4D35FA"/>
<stop offset="1" stop-color="#AF35FA"/>
</linearGradient>
<linearGradient id="paint4_linear_48_7038" x1="52.371" y1="4.61035" x2="59.8496" y2="47.3939" gradientUnits="userSpaceOnUse">
<stop stop-color="#4D35FA"/>
<stop offset="1" stop-color="#AF35FA"/>
</linearGradient>
<linearGradient id="paint5_linear_48_7038" x1="52.371" y1="4.61035" x2="59.8496" y2="47.3939" gradientUnits="userSpaceOnUse">
<stop stop-color="#4D35FA"/>
<stop offset="1" stop-color="#AF35FA"/>
</linearGradient>
<linearGradient id="paint6_linear_48_7038" x1="52.371" y1="4.61035" x2="59.8496" y2="47.3939" gradientUnits="userSpaceOnUse">
<stop stop-color="#4D35FA"/>
<stop offset="1" stop-color="#AF35FA"/>
</linearGradient>
<linearGradient id="paint7_linear_48_7038" x1="52.371" y1="4.61035" x2="59.8496" y2="47.3939" gradientUnits="userSpaceOnUse">
<stop stop-color="#4D35FA"/>
<stop offset="1" stop-color="#AF35FA"/>
</linearGradient>
<linearGradient id="paint8_linear_48_7038" x1="52.371" y1="4.61035" x2="59.8496" y2="47.3939" gradientUnits="userSpaceOnUse">
<stop stop-color="#4D35FA"/>
<stop offset="1" stop-color="#AF35FA"/>
</linearGradient>
<linearGradient id="paint9_linear_48_7038" x1="52.371" y1="4.61035" x2="59.8496" y2="47.3939" gradientUnits="userSpaceOnUse">
<stop stop-color="#4D35FA"/>
<stop offset="1" stop-color="#AF35FA"/>
</linearGradient>
<linearGradient id="paint10_linear_48_7038" x1="52.371" y1="4.61035" x2="59.8496" y2="47.3939" gradientUnits="userSpaceOnUse">
<stop stop-color="#4D35FA"/>
<stop offset="1" stop-color="#AF35FA"/>
</linearGradient>
<linearGradient id="paint11_linear_48_7038" x1="52.371" y1="4.61035" x2="59.8496" y2="47.3939" gradientUnits="userSpaceOnUse">
<stop stop-color="#4D35FA"/>
<stop offset="1" stop-color="#AF35FA"/>
</linearGradient>
<linearGradient id="paint12_linear_48_7038" x1="52.371" y1="4.61035" x2="59.8496" y2="47.3939" gradientUnits="userSpaceOnUse">
<stop stop-color="#4D35FA"/>
<stop offset="1" stop-color="#AF35FA"/>
</linearGradient>
</defs>
</svg>
