<svg width="24" height="25" viewBox="0 0 24 25" fill="none" xmlns="http://www.w3.org/2000/svg">
<path d="M10.8867 0.0173531C11.0661 0.103472 11.0661 0.103472 11.2407 0.224341C11.2886 0.256717 11.2886 0.256717 11.3374 0.289748C11.4054 0.335893 11.4732 0.382478 11.5406 0.429467C11.7182 0.55304 11.8982 0.673097 12.078 0.793558C12.1136 0.81758 12.1493 0.841602 12.1861 0.866351C12.9016 1.34614 13.6625 1.75558 14.4388 2.12767C14.5447 2.17893 14.6496 2.23187 14.7545 2.28513C15.7107 2.76224 16.7382 3.09203 17.7597 3.39844C17.6699 3.58934 17.5699 3.70921 17.4168 3.85572C17.2608 4.00546 17.1135 4.15884 16.9719 4.3221C16.7346 4.59511 16.4917 4.8616 16.2424 5.12363C16.1981 5.17279 16.1538 5.22195 16.1082 5.27259C15.7868 5.6065 15.7868 5.6065 15.5859 5.62987C15.4503 5.6033 15.3366 5.56005 15.2101 5.5047C15.14 5.4788 15.14 5.4788 15.0686 5.45238C14.9107 5.39284 14.7557 5.32832 14.6004 5.2622C14.5427 5.23782 14.4851 5.21344 14.4258 5.18832C13.3972 4.74808 12.4103 4.25625 11.4494 3.68273C11.4007 3.65366 11.352 3.62459 11.3017 3.59463C11.2121 3.53918 11.1239 3.48143 11.0374 3.42115C10.9992 3.39472 10.961 3.3683 10.9216 3.34107C10.8891 3.31734 10.8566 3.29362 10.8232 3.26917C10.7157 3.21904 10.7157 3.21904 10.5844 3.27196C10.453 3.33811 10.3273 3.40716 10.2021 3.48418C10.1557 3.51234 10.1093 3.5405 10.0616 3.5695C10.0115 3.59994 9.9614 3.63037 9.9098 3.66173C7.89191 4.8659 5.10747 6.39154 2.68341 6.39154C2.68809 7.28299 2.69337 8.17443 2.69935 9.06586C2.70211 9.4799 2.70469 9.89393 2.7068 10.308C2.70864 10.6694 2.71085 11.0308 2.7135 11.3922C2.71488 11.5831 2.71609 11.774 2.71685 11.9648C2.72712 14.2825 3.07244 16.2131 4.67881 17.9759C4.73162 18.0354 4.78438 18.0948 4.83708 18.1543C5.1174 18.4685 5.40499 18.763 5.73194 19.0291C5.78903 19.0771 5.84611 19.125 5.9032 19.173C7.0542 20.1286 8.34744 20.8788 9.68809 21.5337C9.75169 21.565 9.81529 21.5964 9.88081 21.6287C10.3644 21.8832 10.3644 21.8832 10.8903 21.8777C11.0243 21.8255 11.1523 21.7662 11.2816 21.7034C11.3537 21.6696 11.3537 21.6696 11.4272 21.6351C11.5804 21.5624 11.7325 21.4878 11.8844 21.4125C11.9336 21.3881 11.9827 21.3637 12.0334 21.3386C13.7571 20.4748 15.6062 19.3453 16.8175 17.8097C16.8417 17.7791 16.8659 17.7485 16.8908 17.717C18.0277 16.2714 18.6179 14.728 18.5847 12.8796C18.5626 11.2468 18.5626 11.2468 18.9653 10.8084C19.0626 10.7116 19.162 10.62 19.2659 10.5304C19.4437 10.3678 19.5861 10.1766 19.7344 9.98741C19.7942 9.91357 19.8542 9.83981 19.9143 9.76614C20.0793 9.56211 20.2415 9.35592 20.403 9.14907C20.6018 8.89462 20.8033 8.64265 21.0092 8.39387C21.0771 8.31177 21.0771 8.31177 21.1465 8.22802C21.1812 8.18901 21.2159 8.14999 21.2517 8.1098C21.27 8.1098 21.2883 8.1098 21.3071 8.1098C21.3123 8.90537 21.3162 9.70094 21.3186 10.4965C21.3197 10.8661 21.3213 11.2356 21.3238 11.6052C21.3263 11.9628 21.3276 12.3203 21.3282 12.6779C21.3286 12.8134 21.3294 12.9488 21.3306 13.0843C21.3397 14.1447 21.2667 15.1851 20.9053 16.1919C20.8888 16.2392 20.8723 16.2866 20.8553 16.3354C20.4629 17.4343 19.8796 18.4031 19.1454 19.3062C19.1226 19.3348 19.0997 19.3634 19.0761 19.3929C18.4753 20.141 17.7977 20.8245 17.0392 21.4125C16.9972 21.4471 16.9552 21.4818 16.9119 21.5175C16.1725 22.1266 15.3707 22.6476 14.5449 23.1307C14.5064 23.1534 14.4678 23.1761 14.428 23.1995C13.4693 23.759 12.4617 24.245 11.4375 24.6723C11.3951 24.6907 11.3527 24.709 11.3089 24.728C10.8196 24.9246 10.4182 24.889 9.93663 24.6858C9.85647 24.6499 9.85647 24.6499 9.77469 24.6134C9.68869 24.5761 9.68869 24.5761 9.60095 24.5381C9.41912 24.4585 9.23825 24.377 9.0576 24.2947C8.99951 24.2683 8.94142 24.2419 8.88157 24.2148C7.05645 23.3786 5.36351 22.343 3.84739 21.0245C3.80009 20.9834 3.75279 20.9424 3.70406 20.9002C3.0857 20.3539 2.52355 19.7798 2.02965 19.1183C1.9692 19.0375 1.90763 18.9576 1.84593 18.8777C0.618303 17.2548 -0.00644742 15.3519 0.00136542 13.3272C0.00113937 13.2269 0.000842892 13.1266 0.000482444 13.0264C-0.000266733 12.7575 1.47778e-05 12.4887 0.000545876 12.2199C0.000970593 11.9374 0.000575098 11.6549 0.000314983 11.3724C1.39232e-05 10.8992 0.000407696 10.4259 0.00120303 9.95269C0.00211176 9.40565 0.0018116 8.85862 0.000899403 8.31158C0.00014548 7.84055 3.75289e-05 7.36953 0.00047314 6.8985C0.000732223 6.61771 0.00076735 6.33693 0.000217721 6.05614C-0.000261788 5.79289 6.88518e-05 5.52966 0.00103134 5.26641C0.00125148 5.1698 0.00118782 5.07318 0.000821593 4.97656C0.00036836 4.84488 0.000935877 4.71324 0.00176631 4.58156C0.00139538 4.54321 0.00102446 4.50485 0.000642292 4.46533C0.00267712 4.29944 0.0155058 4.18766 0.0969498 4.0416C0.263365 3.88121 0.454054 3.88404 0.67459 3.86525C2.93646 3.66043 5.10004 3.08678 7.11506 2.01697C7.24391 1.94921 7.37373 1.88354 7.50367 1.81789C8.2744 1.42567 9.00958 0.989715 9.71753 0.492603C9.762 0.461767 9.80646 0.430932 9.85227 0.399163C9.93658 0.340394 10.0203 0.280732 10.1032 0.220024C10.1604 0.180149 10.1604 0.180149 10.2188 0.139467C10.2515 0.115835 10.2843 0.0922033 10.3181 0.0678551C10.5076 -0.00858146 10.6874 -0.0126036 10.8867 0.0173531Z" fill="#A7AAAD"/>
<path d="M22.3777 0.88367C22.4289 0.882098 22.4802 0.880526 22.5329 0.878906C22.9096 0.939054 23.1864 1.26186 23.4551 1.51416C23.4923 1.54831 23.5295 1.58247 23.5679 1.61765C23.6035 1.65095 23.6392 1.68425 23.6759 1.71855C23.708 1.74849 23.7402 1.77842 23.7733 1.80927C23.9794 2.0382 24.0055 2.26834 23.9987 2.56794C23.9391 2.88712 23.7313 3.10256 23.5244 3.34327C23.4764 3.40031 23.4284 3.4574 23.3806 3.51454C23.3046 3.60482 23.2284 3.69486 23.1516 3.78444C22.9676 3.99917 22.7905 4.21827 22.6167 4.44144C22.398 4.72222 22.1764 5.00033 21.9516 5.27632C21.9065 5.33169 21.9065 5.33169 21.8605 5.38819C21.7378 5.53879 21.6149 5.68929 21.492 5.8398C21.179 6.22346 20.867 6.60757 20.5624 6.99804C20.3028 7.3309 20.0351 7.65658 19.7659 7.98165C19.5648 8.22502 19.3672 8.47062 19.1733 8.71976C18.915 9.05162 18.6484 9.37608 18.3802 9.69992C18.1791 9.94329 17.9815 10.1889 17.7876 10.438C17.5293 10.7699 17.2627 11.0943 16.9945 11.4182C16.7934 11.6615 16.5958 11.9071 16.4019 12.1563C16.1436 12.4881 15.877 12.8126 15.6088 13.1364C15.4077 13.3798 15.2101 13.6254 15.0162 13.8745C14.7579 14.2064 14.4913 14.5309 14.2231 14.8547C14.022 15.0981 13.8244 15.3437 13.6305 15.5928C13.3724 15.9245 13.1059 16.2488 12.8378 16.5725C12.6328 16.8204 12.4319 17.071 12.2344 17.3249C12.0321 17.5839 11.8275 17.8409 11.6178 18.094C11.5938 18.1235 11.5699 18.153 11.5452 18.1835C11.3444 18.4231 11.1464 18.615 10.8314 18.6708C10.2508 18.6647 10.2508 18.6647 9.99999 18.4196C9.29485 17.5731 8.74741 16.5652 8.1584 15.6369C8.02689 15.4298 7.89507 15.2229 7.76325 15.0159C7.4076 14.4576 7.05342 13.8983 6.70026 13.3384C6.56237 13.1198 6.42435 12.9013 6.28634 12.6828C6.12128 12.4216 5.95625 12.1603 5.79138 11.8988C5.76447 11.8562 5.73756 11.8136 5.70984 11.7697C5.65549 11.6835 5.60124 11.5973 5.54707 11.511C5.39337 11.2667 5.23717 11.0243 5.07818 10.7834C5.04288 10.7293 5.00757 10.6753 4.9712 10.6196C4.9029 10.5152 4.83403 10.4112 4.76448 10.3076C4.52909 9.94591 4.38074 9.62493 4.41911 9.18743C4.55799 8.90454 4.76607 8.74566 5.0115 8.55348C5.05394 8.52014 5.05394 8.52014 5.09724 8.48612C5.72926 7.99235 5.72926 7.99235 6.11312 7.98535C6.15985 7.98392 6.20658 7.98249 6.25472 7.98102C6.75573 8.04497 7.14062 8.62041 7.4501 8.98088C7.59269 9.14376 7.73962 9.30238 7.88681 9.46111C8.23471 9.83665 8.57956 10.2147 8.91569 10.6008C9.07148 10.7798 9.23042 10.9556 9.39029 11.1309C9.58128 11.3403 9.76987 11.5514 9.95561 11.7655C10.119 11.9516 10.2864 12.1341 10.4534 12.3169C10.5543 12.4334 10.5543 12.4334 10.6097 12.5443C10.816 12.46 10.9253 12.3407 11.0704 12.1736C11.4478 11.7481 11.8549 11.3515 12.2594 10.9521C12.5921 10.6231 12.5921 10.6231 12.9056 10.2761C13.2111 9.91871 13.5554 9.59563 13.8896 9.26546C14.2976 8.86613 14.2976 8.86613 14.6819 8.44436C14.9957 8.0761 15.3512 7.74443 15.6951 7.4046C16.0078 7.09526 16.3171 6.78821 16.6024 6.45307C16.8835 6.13867 17.1924 5.84813 17.4924 5.5518C17.9012 5.15155 17.9012 5.15155 18.2864 4.72897C18.59 4.37274 18.9334 4.05138 19.2661 3.72269C19.5702 3.422 19.8707 3.12223 20.1483 2.79655C20.4038 2.51062 20.6818 2.24493 20.9539 1.9749C21.0166 1.91252 21.0792 1.85013 21.1418 1.78773C21.2569 1.6731 21.3721 1.55854 21.4873 1.44408C21.5882 1.3438 21.6883 1.24283 21.7878 1.14115C21.9865 0.947573 22.1044 0.88745 22.3777 0.88367Z" fill="#A7AAAD"/>
</svg>
